<svg width="40" height="40" viewBox="0 0 40 40" fill="none" xmlns="http://www.w3.org/2000/svg">
<rect width="40" height="40" rx="20" fill="#FF3E79"/>
<path fill-rule="evenodd" clip-rule="evenodd" d="M12 11C12 10.4477 12.4477 10 13 10H27C27.5523 10 28 10.4477 28 11L28 28.5C27.1716 28.5 26.5001 29.1715 26.5 29.9999H25.5C25.4999 29.1715 24.8284 28.5 24 28.5C23.1716 28.5 22.5001 29.1715 22.5 29.9999H21.5C21.4999 29.1715 20.8284 28.5 20 28.5C19.1716 28.5 18.5001 29.1715 18.5 29.9999H17.5C17.4999 29.1715 16.8284 28.5 16 28.5C15.1716 28.5 14.5001 29.1715 14.5 29.9999H13.5C13.4999 29.1715 12.8284 28.5 12 28.5V11ZM21.4161 21.7886C20.5533 22.3446 19.4701 22.5938 18.3294 22.3829C16.5272 22.0474 15.0893 20.5329 14.8592 18.7116C14.495 15.8263 16.949 13.4203 19.8535 13.8804C21.6557 14.168 23.1032 15.6442 23.4004 17.4367C23.5825 18.5487 23.3237 19.5743 22.7869 20.4275L24.8958 22.5267C25.2696 22.9006 25.2696 23.514 24.8958 23.8879C24.5124 24.2713 23.8988 24.2713 23.525 23.8975L21.4161 21.7886ZM16.7061 18.059C16.7061 16.7602 17.7602 15.7061 19.059 15.7061C20.3578 15.7061 21.4119 16.7602 21.4119 18.059C21.4119 19.3578 20.3578 20.4119 19.059 20.4119C17.7602 20.4119 16.7061 19.3578 16.7061 18.059Z" fill="white"/>
</svg>
