<svg width="98" height="52" viewBox="0 0 98 52" fill="none" xmlns="http://www.w3.org/2000/svg">
<path fill-rule="evenodd" clip-rule="evenodd" d="M36.5703 0.592773C36.018 0.592773 35.5703 1.04049 35.5703 1.59277V5.86773C35.5703 6.42001 36.018 6.86773 36.5703 6.86773H72.8973C83.0242 6.86773 90.9777 14.6644 90.9777 24.7572C90.9777 25.0428 91.2092 25.2743 91.4948 25.2743H96.757C97.0425 25.2743 97.274 25.0428 97.274 24.7572C97.274 11.2679 86.432 0.592773 72.8973 0.592773H36.5703Z" fill="#6B7B84" stroke="#80949F" stroke-width="0.5"/>
<path fill-rule="evenodd" clip-rule="evenodd" d="M7.10634 25.7127C7.10634 25.4706 6.91011 25.2744 6.66805 25.2744H1.16388C0.921815 25.2744 0.725586 25.4706 0.725586 25.7127C0.725586 39.3621 10.9488 50.6316 24.1682 51.3691L66.5099 51.4069C67.0625 51.4073 67.5108 50.9595 67.5108 50.4069V45.8272C67.5108 45.275 67.0631 44.8272 66.5108 44.8272H25.626C15.3898 44.7989 7.10634 36.2835 7.10634 25.7127Z" fill="#6B7B84" stroke="#80949F" stroke-width="0.5"/>
<path fill-rule="evenodd" clip-rule="evenodd" d="M28.1415 39.7929C30.8803 39.7929 33.1616 39.2608 35.4149 38.166L35.5704 38.0204V30.186L34.7273 31.2654C33.1049 33.0383 30.9259 34.0142 28.4608 34.0142C23.8692 34.0142 19.2575 31.0463 19.2575 25.3743C19.2575 21.0879 22.4381 16.5325 28.2993 16.5325C29.4688 16.5325 32.313 16.809 34.7232 19.3685L35.5704 20.4122V12.6132L35.4218 12.4658C33.1258 11.3152 30.7843 10.7559 28.1137 10.7559C23.5467 10.7559 19.9821 11.9582 17.1438 14.4294C15.3435 15.9782 12.3408 19.449 12.3408 25.2928C12.3408 29.6135 13.8793 32.988 17.1669 35.9149C20.2252 38.5967 23.6163 39.7929 28.1415 39.7929Z" fill="#6B7B84"/>
<path d="M28.1415 39.7929C30.8803 39.7929 33.1616 39.2608 35.4149 38.166L35.5704 38.0204V30.186L34.7273 31.2654C33.1049 33.0383 30.9259 34.0142 28.4608 34.0142C23.8692 34.0142 19.2575 31.0463 19.2575 25.3743C19.2575 21.0879 22.4381 16.5325 28.2993 16.5325C29.4688 16.5325 32.313 16.809 34.7232 19.3685L35.5704 20.4122V12.6132L35.4218 12.4658C33.1258 11.3152 30.7843 10.7559 28.1137 10.7559C23.5467 10.7559 19.9821 11.9582 17.1438 14.4294C15.3435 15.9782 12.3408 19.449 12.3408 25.2928C12.3408 29.6135 13.8793 32.988 17.1669 35.9149C20.2252 38.5967 23.6163 39.7929 28.1415 39.7929" stroke="#80949F" stroke-width="0.5"/>
<path fill-rule="evenodd" clip-rule="evenodd" d="M47.9102 17.2891H49.2745C50.5259 17.2891 51.9523 17.3573 53.0319 18.0932C53.559 18.4697 54.4435 19.3415 54.4435 20.9248C54.4435 22.0948 53.9264 23.1439 53.0724 23.7986C51.9774 24.5934 50.6758 24.5478 49.63 24.5478H47.9102V17.2891ZM50.976 29.8183C54.2074 29.8183 56.7368 28.8863 58.4933 27.1303C60.654 24.974 60.977 22.0078 60.977 20.444C60.977 18.7707 60.5803 15.5071 57.9202 13.144C55.7398 11.2333 53.4132 10.7559 50.1314 10.7559H41.377V39.7929H48.0355V29.8183H50.976Z" fill="#6B7B84"/>
<path d="M47.9102 17.2891V17.0391H47.6602V17.2891H47.9102ZM53.0319 18.0932L53.1772 17.8897L53.1727 17.8866L53.0319 18.0932ZM53.0724 23.7986L53.2193 24.001L53.2245 23.997L53.0724 23.7986ZM47.9102 24.5478H47.6602V24.7978H47.9102V24.5478ZM58.4933 27.1303L58.3167 26.9534L58.3166 26.9535L58.4933 27.1303ZM57.9202 13.144L58.0863 12.9571L58.085 12.956L57.9202 13.144ZM41.377 10.7559V10.5059H41.127V10.7559H41.377ZM41.377 39.7929H41.127V40.0429H41.377V39.7929ZM48.0355 39.7929V40.0429H48.2855V39.7929H48.0355ZM48.0355 29.8183V29.5683H47.7855V29.8183H48.0355ZM47.9102 17.5391H49.2745V17.0391H47.9102V17.5391ZM49.2745 17.5391C50.5316 17.5391 51.8829 17.6126 52.8911 18.2998L53.1727 17.8866C52.0217 17.1021 50.5202 17.0391 49.2745 17.0391V17.5391ZM52.8865 18.2966C53.3742 18.645 54.1935 19.4498 54.1935 20.9248H54.6935C54.6935 19.2332 53.7438 18.2945 53.1772 17.8898L52.8865 18.2966ZM54.1935 20.9248C54.1935 22.0207 53.7097 22.995 52.9203 23.6002L53.2245 23.997C54.1431 23.2929 54.6935 22.1689 54.6935 20.9248H54.1935ZM52.9255 23.5963C51.9081 24.3348 50.6962 24.2978 49.63 24.2978V24.7978C50.6554 24.7978 52.0466 24.8521 53.2192 24.0009L52.9255 23.5963ZM49.63 24.2978H47.9102V24.7978H49.63V24.2978ZM48.1602 24.5478V17.2891H47.6602V24.5478H48.1602ZM50.976 30.0683C54.2559 30.0683 56.8554 29.1212 58.67 27.3071L58.3166 26.9535C56.6182 28.6514 54.1589 29.5683 50.976 29.5683V30.0683ZM58.6699 27.3073C60.902 25.0798 61.227 22.0292 61.227 20.444H60.727C60.727 21.9864 60.4061 24.8683 58.3167 26.9534L58.6699 27.3073ZM61.227 20.444C61.227 18.7427 60.8253 15.3903 58.0863 12.9571L57.7542 13.3309C60.3353 15.6238 60.727 18.7988 60.727 20.444H61.227ZM58.085 12.956C55.839 10.9879 53.4408 10.5059 50.1314 10.5059V11.0059C53.3857 11.0059 55.6405 11.4787 57.7555 13.332L58.085 12.956ZM50.1314 10.5059H41.377V11.0059H50.1314V10.5059ZM41.127 10.7559V39.7929H41.627V10.7559H41.127ZM41.377 40.0429H48.0355V39.5429H41.377V40.0429ZM48.2855 39.7929V29.8183H47.7855V39.7929H48.2855ZM48.0355 30.0683H50.976V29.5683H48.0355V30.0683Z" fill="#80949F"/>
<path fill-rule="evenodd" clip-rule="evenodd" d="M80.9525 24.4692C79.5049 23.1865 77.4841 22.443 75.1906 21.6718C73.5564 21.1031 72.656 20.7899 72.0557 20.2426C71.582 19.8404 71.3707 19.4038 71.3707 18.8267C71.3707 17.5627 72.2296 16.2118 74.6409 16.2118C76.2796 16.2118 77.6517 16.9125 78.7192 18.2935L79.143 18.8419L82.6592 14.3661L82.3387 14.045C80.1882 11.8929 77.3543 10.7559 74.1435 10.7559C67.6652 10.7559 64.7653 14.9704 64.7653 19.1473C64.7653 21.3887 65.5646 23.1965 67.1362 24.518C68.5432 25.7239 70.259 26.3996 71.9049 26.9512L72.091 27.0128C73.5525 27.4959 75.0641 27.9959 75.9669 28.8039C76.595 29.381 76.8749 30.0081 76.8749 30.8372C76.8749 32.7373 75.3786 34.0142 73.1515 34.0142C71.3911 34.0142 69.0731 33.1513 67.8466 30.7301L67.5259 30.0958L63.1553 34.1415L63.413 34.5061C64.8074 36.4805 67.954 39.7929 73.3589 39.7929C79.3186 39.7929 83.4812 35.9613 83.4812 30.4756C83.4812 27.3379 82.1046 25.4757 80.9525 24.4692Z" fill="#6B7B84"/>
<path d="M80.9525 24.4692C79.5049 23.1865 77.4841 22.443 75.1906 21.6718C73.5564 21.1031 72.656 20.7899 72.0557 20.2426C71.582 19.8404 71.3707 19.4038 71.3707 18.8267C71.3707 17.5627 72.2296 16.2118 74.6409 16.2118C76.2796 16.2118 77.6517 16.9125 78.7192 18.2935L79.143 18.8419L82.6592 14.3661L82.3387 14.045C80.1882 11.8929 77.3543 10.7559 74.1435 10.7559C67.6652 10.7559 64.7653 14.9704 64.7653 19.1473C64.7653 21.3887 65.5646 23.1965 67.1362 24.518C68.5432 25.7239 70.259 26.3996 71.9049 26.9512L72.091 27.0128C73.5525 27.4959 75.0641 27.9959 75.9669 28.8039C76.595 29.381 76.8749 30.0081 76.8749 30.8372C76.8749 32.7373 75.3786 34.0142 73.1515 34.0142C71.3911 34.0142 69.0731 33.1513 67.8466 30.7301L67.5259 30.0958L63.1553 34.1415L63.413 34.5061C64.8074 36.4805 67.954 39.7929 73.3589 39.7929C79.3186 39.7929 83.4812 35.9613 83.4812 30.4756C83.4812 27.3379 82.1046 25.4757 80.9525 24.4692" stroke="#80949F" stroke-width="0.5"/>
</svg>
